<svg width="50" height="50" viewBox="0 0 50 50" fill="none" xmlns="http://www.w3.org/2000/svg">
<path d="M25 49C31.3652 49 37.4697 46.4714 41.9706 41.9706C46.4714 37.4697 49 31.3652 49 25C49 18.6348 46.4714 12.5303 41.9706 8.02944C37.4697 3.52856 31.3652 1 25 1C18.6348 1 12.5303 3.52856 8.02944 8.02944C3.52856 12.5303 1 18.6348 1 25C1 31.3652 3.52856 37.4697 8.02944 41.9706C12.5303 46.4714 18.6348 49 25 49ZM17.4062 17.4062C18.2875 16.525 19.7125 16.525 20.5844 17.4062L24.9906 21.8125L29.3969 17.4062C30.2781 16.525 31.7031 16.525 32.575 17.4062C33.4469 18.2875 33.4562 19.7125 32.575 20.5844L28.1687 24.9906L32.575 29.3969C33.4562 30.2781 33.4562 31.7031 32.575 32.575C31.6937 33.4469 30.2687 33.4562 29.3969 32.575L24.9906 28.1687L20.5844 32.575C19.7031 33.4562 18.2781 33.4562 17.4062 32.575C16.5344 31.6937 16.525 30.2687 17.4062 29.3969L21.8125 24.9906L17.4062 20.5844C16.525 19.7031 16.525 18.2781 17.4062 17.4062Z" fill="white"/>
</svg>
