<svg width="50" height="50" viewBox="0 0 50 50" fill="none" xmlns="http://www.w3.org/2000/svg">
<path d="M8.57143 2C4.94688 2 2 4.94688 2 8.57143V41.4286C2 45.0531 4.94688 48 8.57143 48H41.4286C45.0531 48 48 45.0531 48 41.4286V16.5085C48 14.7629 47.3121 13.0893 46.0799 11.8571L38.1429 3.92009C36.9107 2.68795 35.2371 2 33.4915 2H8.57143ZM8.57143 11.8571C8.57143 10.0397 10.0397 8.57143 11.8571 8.57143H31.5714C33.3888 8.57143 34.8571 10.0397 34.8571 11.8571V18.4286C34.8571 20.246 33.3888 21.7143 31.5714 21.7143H11.8571C10.0397 21.7143 8.57143 20.246 8.57143 18.4286V11.8571ZM25 28.2857C26.7429 28.2857 28.4143 28.9781 29.6467 30.2104C30.8791 31.4428 31.5714 33.1143 31.5714 34.8571C31.5714 36.6 30.8791 38.2715 29.6467 39.5038C28.4143 40.7362 26.7429 41.4286 25 41.4286C23.2571 41.4286 21.5857 40.7362 20.3533 39.5038C19.1209 38.2715 18.4286 36.6 18.4286 34.8571C18.4286 33.1143 19.1209 31.4428 20.3533 30.2104C21.5857 28.9781 23.2571 28.2857 25 28.2857Z" fill="white"/>
</svg>
