<svg width="50" height="50" viewBox="0 0 50 50" fill="none" xmlns="http://www.w3.org/2000/svg">
<path d="M25 49C31.3652 49 37.4697 46.4714 41.9706 41.9706C46.4714 37.4697 49 31.3652 49 25C49 18.6348 46.4714 12.5303 41.9706 8.02944C37.4697 3.52856 31.3652 1 25 1C18.6348 1 12.5303 3.52856 8.02944 8.02944C3.52856 12.5303 1 18.6348 1 25C1 31.3652 3.52856 37.4697 8.02944 41.9706C12.5303 46.4714 18.6348 49 25 49ZM35.5938 20.5938L23.5938 32.5938C22.7125 33.475 21.2875 33.475 20.4156 32.5938L14.4156 26.5938C13.5344 25.7125 13.5344 24.2875 14.4156 23.4156C15.2969 22.5438 16.7219 22.5344 17.5938 23.4156L22 27.8219L32.4062 17.4062C33.2875 16.525 34.7125 16.525 35.5844 17.4062C36.4562 18.2875 36.4656 19.7125 35.5844 20.5844L35.5938 20.5938Z" fill="white"/>
</svg>
