<svg width="50" height="50" viewBox="0 0 50 50" fill="none" xmlns="http://www.w3.org/2000/svg">
<path d="M38.32 12.5C38.32 16.8359 35.882 20.6543 32.1771 22.8906V25C32.1771 26.7285 30.8046 28.125 29.1057 28.125H19.8914C18.1925 28.125 16.82 26.7285 16.82 25V22.8906C13.115 20.6445 10.6771 16.8262 10.6771 12.5C10.6771 5.5957 16.8679 0 24.4985 0C32.1291 0 38.32 5.5957 38.32 12.5ZM19.1235 17.1875C19.9381 17.1875 20.7193 16.8583 21.2954 16.2722C21.8714 15.6862 22.195 14.8913 22.195 14.0625C22.195 13.2337 21.8714 12.4388 21.2954 11.8528C20.7193 11.2667 19.9381 10.9375 19.1235 10.9375C18.3089 10.9375 17.5277 11.2667 16.9517 11.8528C16.3757 12.4388 16.0521 13.2337 16.0521 14.0625C16.0521 14.8913 16.3757 15.6862 16.9517 16.2722C17.5277 16.8583 18.3089 17.1875 19.1235 17.1875ZM32.945 14.0625C32.945 13.2337 32.6214 12.4388 32.0454 11.8528C31.4693 11.2667 30.6881 10.9375 29.8735 10.9375C29.0589 10.9375 28.2777 11.2667 27.7017 11.8528C27.1257 12.4388 26.8021 13.2337 26.8021 14.0625C26.8021 14.8913 27.1257 15.6862 27.7017 16.2722C28.2777 16.8583 29.0589 17.1875 29.8735 17.1875C30.6881 17.1875 31.4693 16.8583 32.0454 16.2722C32.6214 15.6862 32.945 14.8913 32.945 14.0625ZM3.32486 26.7285C4.08312 25.1855 5.92598 24.5605 7.4425 25.332L24.4985 34.0039L41.5546 25.332C43.0711 24.5605 44.9139 25.1855 45.6722 26.7285C46.4304 28.2715 45.8162 30.1465 44.2996 30.918L31.3708 37.5L44.3092 44.082C45.8258 44.8535 46.44 46.7285 45.6818 48.2715C44.9235 49.8145 43.0807 50.4395 41.5642 49.668L24.4985 40.9961L7.4425 49.668C5.92598 50.4395 4.08312 49.8145 3.32486 48.2715C2.56661 46.7285 3.18089 44.8535 4.69741 44.082L17.6262 37.5L4.69741 30.918C3.18089 30.1465 2.56661 28.2715 3.32486 26.7285Z" fill="white"/>
</svg>
