<svg width="142" height="32" viewBox="0 0 142 32" fill="none" xmlns="http://www.w3.org/2000/svg">
<g clip-path="url(#clip0_427_14438)">
<path d="M11.8259 5.31867L7.75996 0H0L11.8259 15.528L15.7208 10.352L11.8259 5.28933V5.31867Z" fill="#C567F4"/>
<path d="M15.8359 0L11.8261 5.28933L15.721 10.352L23.6256 0H15.8359Z" fill="#C567F4"/>
<path opacity="0.5" d="M12.4624 4.46399L11.8261 5.28866L15.721 10.3513L16.4722 9.38396L12.4624 4.46399Z" fill="#8403C4"/>
<path d="M11.8248 20.4899C11.654 20.4891 11.4846 20.5218 11.3266 20.5859C11.1686 20.6501 11.0251 20.7445 10.9042 20.8636C10.7834 20.9827 10.6877 21.1242 10.6227 21.28C10.5576 21.4358 10.5245 21.6027 10.5252 21.7712V23.0232H13.1204V21.7712C13.1211 21.6031 13.0881 21.4365 13.0233 21.2809C12.9585 21.1254 12.8632 20.9841 12.7428 20.865C12.6224 20.7459 12.4793 20.6515 12.3218 20.5871C12.1642 20.5227 11.9953 20.4897 11.8248 20.4899Z" fill="#C567F4"/>
<path d="M11.8254 15.3334C10.1537 15.3334 8.51954 15.8221 7.12957 16.7378C5.73955 17.6534 4.65619 18.955 4.01645 20.4777C3.37671 22.0004 3.20933 23.676 3.53546 25.2924C3.8616 26.909 4.66661 28.3938 5.84869 29.5592C7.03078 30.7247 8.53685 31.5184 10.1765 31.8399C11.816 32.1614 13.5156 31.9964 15.06 31.3657C16.6045 30.735 17.9245 29.6668 18.8534 28.2964C19.7821 26.926 20.2778 25.3149 20.2778 23.6667C20.2785 22.5722 20.0604 21.4882 19.6358 20.4768C19.2113 19.4655 18.5888 18.5466 17.8038 17.7726C17.0187 16.9986 16.0867 16.3848 15.0609 15.9663C14.035 15.5478 12.9356 15.3327 11.8254 15.3334ZM15.4904 27.164C15.4879 27.412 15.3869 27.6492 15.209 27.8246C15.0311 28 14.7905 28.0996 14.539 28.102H9.11189C8.86034 28.0996 8.61976 28 8.44185 27.8246C8.26394 27.6492 8.16292 27.412 8.16049 27.164V23.9514C8.16292 23.7034 8.26394 23.4662 8.44185 23.2908C8.61976 23.1154 8.86034 23.0158 9.11189 23.0134H9.25659V21.7614C9.25436 21.4272 9.319 21.0958 9.4468 20.7862C9.5746 20.4767 9.76313 20.195 10.0015 19.9574C10.2398 19.7197 10.5234 19.5307 10.8359 19.4012C11.1484 19.2718 11.4838 19.2043 11.8227 19.2027C12.5088 19.2098 13.1647 19.4817 13.6499 19.96C14.135 20.4383 14.4107 21.085 14.418 21.7614V23.0134H14.5627C14.6886 23.0096 14.8141 23.0312 14.9312 23.077C15.0484 23.1228 15.1548 23.1918 15.2439 23.2797C15.333 23.3676 15.403 23.4724 15.4495 23.588C15.4959 23.7035 15.5179 23.8272 15.5141 23.9514L15.4843 27.164H15.4904Z" fill="#C567F4"/>
<path d="M10.9036 24.6979C10.8926 24.6869 10.8842 24.6737 10.8791 24.6592C10.8739 24.6447 10.8721 24.6292 10.8738 24.6139C10.8783 24.5899 10.8883 24.5671 10.903 24.5475C10.9178 24.5279 10.937 24.5118 10.959 24.5006L11.5067 24.0446C11.5995 23.9771 11.7101 23.9378 11.8252 23.9313H12.1437C12.1975 23.9313 12.249 23.9523 12.2871 23.9898C12.3251 24.0273 12.3466 24.0782 12.3466 24.1313V26.8646C12.3456 26.9177 12.3246 26.9686 12.2877 27.0073C12.2289 27.0366 12.2025 27.0653 12.143 27.0653H11.7373C11.6835 27.0653 11.6319 27.0442 11.5938 27.0067C11.5558 26.9691 11.5345 26.9183 11.5345 26.8653V24.7319L11.2755 24.9319C11.2457 24.9613 11.2166 24.9613 11.1605 24.9613C11.1308 24.9613 11.1017 24.9319 11.0753 24.9033L10.9015 24.7033L10.9036 24.6979Z" fill="#C567F4"/>
<path d="M29.1137 29.0651C28.9922 29.0829 28.8683 29.0755 28.7498 29.0433C28.6312 29.0111 28.5206 28.9548 28.4248 28.878C28.3289 28.8011 28.2499 28.7054 28.1927 28.5967C28.1356 28.488 28.1014 28.3687 28.0923 28.2462C28.1188 27.9148 28.253 27.6012 28.4745 27.3534L37.6591 15.6354L29.0038 4.66447C28.7784 4.41915 28.6435 4.10412 28.6217 3.77164C28.6217 3.21281 28.9557 2.93341 29.6237 2.93341H33.5432C34.1738 2.94992 34.7914 3.11536 35.3458 3.41621C35.9002 3.71706 36.3755 4.1448 36.733 4.66447L41.7265 11.0061L46.7199 4.66447C47.079 4.14709 47.5542 3.72097 48.1075 3.42026C48.6609 3.11954 49.2769 2.95258 49.9064 2.93274H53.8279C54.496 2.93274 54.8299 3.21215 54.8299 3.77097C54.8036 4.10234 54.6693 4.41593 54.4478 4.6638L45.7925 15.6347L54.9771 27.3527C55.1814 27.5612 55.3151 27.8285 55.3592 28.117C55.3678 28.2504 55.3465 28.384 55.297 28.5081C55.2474 28.6322 55.1708 28.7437 55.0727 28.8345C54.9747 28.9254 54.8576 28.9931 54.73 29.033C54.6024 29.0729 54.4676 29.0839 54.3352 29.0651H50.4543C49.8281 29.0508 49.2142 28.8881 48.6631 28.5904C48.1119 28.2927 47.6392 27.8686 47.2838 27.3527L41.7265 20.264L36.1684 27.354C35.8131 27.8705 35.3401 28.295 34.7884 28.5925C34.2366 28.8901 33.622 29.0521 32.9952 29.0651H29.1137Z" fill="#AF52DE"/>
<path d="M58.3253 27.3901V4.70319C58.3199 4.46998 58.3626 4.23818 58.4504 4.02208C58.5382 3.80599 58.6694 3.61021 58.8359 3.44683C58.9937 3.28274 59.1835 3.15275 59.3935 3.06492C59.6035 2.97708 59.8294 2.93326 60.057 2.93617H70.2438C75.5155 2.93617 79.3511 3.9899 81.7513 6.09736C84.1508 8.20481 85.3493 11.5093 85.3466 16.011C85.3466 20.5118 84.1482 23.8132 81.7513 25.9154C79.3545 28.0175 75.5182 29.0674 70.2438 29.0652H60.0563C59.6016 29.0724 59.1625 28.8991 58.8353 28.5832C58.6705 28.4319 58.5398 28.2472 58.4518 28.0415C58.3639 27.8358 58.3207 27.6137 58.3253 27.3901ZM65.1969 23.908H70.0447C73.3117 23.908 75.5348 23.3125 76.7133 22.1217C77.8917 20.9308 78.4803 18.893 78.4803 16.0084C78.4803 13.1232 77.8911 11.0815 76.7133 9.88307C75.5348 8.68465 73.3124 8.08543 70.0447 8.08543H65.1969V23.908Z" fill="#AF52DE"/>
<path d="M116.225 28.2829C116.225 28.8062 115.916 29.0666 115.296 29.0666H110.924C110.38 29.0409 109.854 28.8676 109.401 28.5652C108.888 28.2686 108.454 27.8532 108.136 27.3542L105.039 22.5065C103.764 20.5149 102.22 19.5191 100.41 19.5191H95.96V27.3542C95.96 27.5791 95.9161 27.8018 95.8302 28.0097C95.7436 28.2175 95.6178 28.4064 95.4587 28.5654C95.2995 28.7244 95.1111 28.8506 94.9027 28.9366C94.695 29.0226 94.4726 29.0668 94.2476 29.0666H90.8234C90.5964 29.0695 90.3713 29.0266 90.1616 28.9405C89.9526 28.8543 89.7621 28.7267 89.603 28.5652C89.4386 28.4096 89.3087 28.2217 89.2209 28.0132C89.133 27.8048 89.089 27.5804 89.0923 27.3542V4.6646C89.089 4.43863 89.1303 4.21425 89.2149 4.0046C89.2994 3.79494 89.4246 3.6042 89.5837 3.44353C89.7368 3.27938 89.9226 3.14913 90.129 3.06117C90.3354 2.97321 90.5578 2.9295 90.7821 2.93287H105.816C108.295 2.82959 110.727 3.62601 112.665 5.17526C113.543 5.9117 114.24 6.83981 114.703 7.8881C115.165 8.93646 115.382 10.077 115.335 11.222C115.335 14.7591 113.044 16.9769 108.463 17.8753C109.235 18.1711 109.928 18.6417 110.487 19.2501C111.281 20.1291 111.993 21.0775 112.617 22.0837L115.932 27.3488C116.108 27.6281 116.208 27.9476 116.225 28.2769V28.2829ZM95.96 14.3599H103.724C104.872 14.3848 106.008 14.1278 107.033 13.6115C107.481 13.3993 107.855 13.0594 108.109 12.6346C108.364 12.2098 108.487 11.7192 108.463 11.2247C108.487 10.7301 108.364 10.2395 108.109 9.8147C107.855 9.38993 107.481 9.04997 107.033 8.83779C106.007 8.3226 104.872 8.06567 103.724 8.08943H95.96V14.3599Z" fill="#AF52DE"/>
<path d="M117.079 10.5946V9.32962C117.076 9.2424 117.09 9.15538 117.122 9.07409C117.154 8.99286 117.203 8.91909 117.265 8.85757C117.326 8.79679 117.399 8.74892 117.478 8.71689C117.559 8.68487 117.644 8.66929 117.731 8.67115H120.388V6.02333C120.385 5.93607 120.399 5.84904 120.431 5.76778C120.463 5.68651 120.512 5.61279 120.574 5.55128C120.636 5.48965 120.71 5.44133 120.791 5.40926C120.871 5.3772 120.959 5.36209 121.046 5.36486H122.299C122.386 5.36145 122.473 5.37626 122.554 5.40836C122.636 5.44046 122.71 5.48913 122.771 5.55128C122.832 5.61314 122.881 5.68693 122.913 5.76811C122.945 5.84928 122.959 5.93614 122.957 6.02333V8.67049H125.742C125.829 8.66709 125.917 8.68194 125.998 8.71403C126.079 8.74612 126.153 8.79479 126.214 8.85691C126.276 8.91923 126.323 8.99306 126.355 9.07416C126.387 9.15525 126.402 9.24187 126.4 9.32896V10.594C126.403 10.6803 126.388 10.7663 126.356 10.8466C126.324 10.9268 126.276 10.9995 126.214 11.06C126.087 11.1801 125.917 11.2448 125.742 11.2398H122.957V14.0248C122.96 14.1121 122.945 14.1991 122.913 14.2804C122.881 14.3616 122.833 14.4354 122.771 14.4968C122.708 14.5579 122.635 14.6058 122.554 14.6378C122.473 14.6698 122.386 14.6853 122.299 14.6833H121.046C120.959 14.6867 120.871 14.6718 120.79 14.6397C120.709 14.6076 120.635 14.559 120.574 14.4968C120.512 14.4346 120.465 14.3608 120.433 14.2797C120.401 14.1986 120.386 14.1119 120.388 14.0248V11.2438H117.731C117.645 11.2464 117.56 11.2319 117.48 11.201C117.399 11.1701 117.327 11.1236 117.265 11.064C117.203 11.003 117.154 10.9298 117.122 10.849C117.09 10.7681 117.076 10.6815 117.079 10.5946Z" fill="#AF52DE"/>
</g>
<defs>
<clipPath id="clip0_427_14438">
<rect width="142" height="32" fill="white"/>
</clipPath>
</defs>
</svg>
