<svg width="142" height="32" viewBox="0 0 142 32" fill="none" xmlns="http://www.w3.org/2000/svg">
<g clip-path="url(#clip0_427_14414)">
<path d="M11.8259 5.31867L7.75996 0H0L11.8259 15.528L15.7208 10.352L11.8259 5.28933V5.31867Z" fill="#C567F4"/>
<path d="M15.8359 0L11.8261 5.28933L15.721 10.352L23.6256 0H15.8359Z" fill="#C567F4"/>
<path opacity="0.5" d="M12.4624 4.46399L11.8261 5.28866L15.721 10.3513L16.4722 9.38396L12.4624 4.46399Z" fill="#8403C4"/>
<path d="M11.8248 20.4899C11.654 20.4891 11.4846 20.5218 11.3267 20.5859C11.1686 20.6501 11.0251 20.7445 10.9042 20.8636C10.7834 20.9827 10.6877 21.1242 10.6227 21.28C10.5576 21.4358 10.5245 21.6027 10.5252 21.7712V23.0232H13.1204V21.7712C13.1211 21.6031 13.0881 21.4365 13.0234 21.2809C12.9585 21.1254 12.8632 20.9841 12.7428 20.865C12.6224 20.7459 12.4793 20.6515 12.3218 20.5871C12.1643 20.5227 11.9953 20.4897 11.8248 20.4899Z" fill="#C567F4"/>
<path d="M11.8254 15.3334C10.1537 15.3334 8.51953 15.8221 7.12955 16.7378C5.73953 17.6534 4.65618 18.955 4.01643 20.4777C3.37669 22.0004 3.20931 23.676 3.53544 25.2924C3.86158 26.909 4.6666 28.3938 5.84868 29.5592C7.03076 30.7247 8.53684 31.5184 10.1765 31.8399C11.816 32.1614 13.5156 31.9964 15.06 31.3657C16.6045 30.735 17.9245 29.6668 18.8533 28.2964C19.7821 26.926 20.2778 25.3149 20.2778 23.6667C20.2785 22.5722 20.0603 21.4882 19.6358 20.4768C19.2113 19.4655 18.5887 18.5466 17.8038 17.7726C17.0187 16.9986 16.0866 16.3848 15.0609 15.9663C14.035 15.5478 12.9356 15.3327 11.8254 15.3334ZM15.4904 27.164C15.4879 27.412 15.3869 27.6492 15.209 27.8246C15.0311 28 14.7905 28.0996 14.539 28.102H9.11187C8.86033 28.0996 8.61974 28 8.44183 27.8246C8.26393 27.6492 8.16291 27.412 8.16047 27.164V23.9514C8.16291 23.7034 8.26393 23.4662 8.44183 23.2908C8.61974 23.1154 8.86033 23.0158 9.11187 23.0134H9.25658V21.7614C9.25434 21.4272 9.31899 21.0958 9.44679 20.7862C9.57459 20.4767 9.76311 20.195 10.0015 19.9574C10.2398 19.7197 10.5234 19.5307 10.8359 19.4012C11.1484 19.2718 11.4837 19.2043 11.8227 19.2027C12.5088 19.2098 13.1647 19.4817 13.6499 19.96C14.135 20.4383 14.4107 21.085 14.4179 21.7614V23.0134H14.5626C14.6886 23.0096 14.8141 23.0312 14.9312 23.077C15.0484 23.1228 15.1548 23.1918 15.2439 23.2797C15.333 23.3676 15.403 23.4724 15.4495 23.588C15.4959 23.7035 15.5179 23.8272 15.514 23.9514L15.4843 27.164H15.4904Z" fill="#C567F4"/>
<path d="M10.9036 24.6979C10.8926 24.6869 10.8842 24.6737 10.8791 24.6592C10.8739 24.6447 10.8721 24.6292 10.8738 24.6139C10.8783 24.5899 10.8883 24.5671 10.903 24.5475C10.9178 24.5279 10.937 24.5118 10.959 24.5006L11.5067 24.0446C11.5995 23.9771 11.7101 23.9378 11.8252 23.9313H12.1437C12.1975 23.9313 12.249 23.9523 12.2871 23.9898C12.3251 24.0273 12.3466 24.0782 12.3466 24.1313V26.8646C12.3456 26.9177 12.3246 26.9686 12.2877 27.0073C12.2289 27.0366 12.2025 27.0653 12.143 27.0653H11.7373C11.6835 27.0653 11.6319 27.0442 11.5938 27.0067C11.5558 26.9691 11.5345 26.9183 11.5345 26.8653V24.7319L11.2755 24.9319C11.2457 24.9613 11.2166 24.9613 11.1605 24.9613C11.1308 24.9613 11.1017 24.9319 11.0753 24.9033L10.9015 24.7033L10.9036 24.6979Z" fill="#C567F4"/>
<path d="M37.0781 6.95312V7.67188C37.0781 8.52604 36.9714 9.29167 36.7578 9.96875C36.5443 10.6458 36.237 11.2214 35.8359 11.6953C35.4349 12.1693 34.9531 12.5312 34.3906 12.7812C33.8333 13.0312 33.2083 13.1562 32.5156 13.1562C31.8438 13.1562 31.2266 13.0312 30.6641 12.7812C30.1068 12.5312 29.6224 12.1693 29.2109 11.6953C28.8047 11.2214 28.4896 10.6458 28.2656 9.96875C28.0417 9.29167 27.9297 8.52604 27.9297 7.67188V6.95312C27.9297 6.09896 28.0391 5.33594 28.2578 4.66406C28.4818 3.98698 28.7969 3.41146 29.2031 2.9375C29.6094 2.45833 30.0911 2.09375 30.6484 1.84375C31.2109 1.59375 31.8281 1.46875 32.5 1.46875C33.1927 1.46875 33.8177 1.59375 34.375 1.84375C34.9375 2.09375 35.4193 2.45833 35.8203 2.9375C36.2266 3.41146 36.5365 3.98698 36.75 4.66406C36.9688 5.33594 37.0781 6.09896 37.0781 6.95312ZM35.5859 7.67188V6.9375C35.5859 6.26042 35.5156 5.66146 35.375 5.14062C35.2396 4.61979 35.0391 4.18229 34.7734 3.82812C34.5078 3.47396 34.1823 3.20573 33.7969 3.02344C33.4167 2.84115 32.9844 2.75 32.5 2.75C32.0312 2.75 31.6068 2.84115 31.2266 3.02344C30.8516 3.20573 30.5286 3.47396 30.2578 3.82812C29.9922 4.18229 29.7865 4.61979 29.6406 5.14062C29.4948 5.66146 29.4219 6.26042 29.4219 6.9375V7.67188C29.4219 8.35417 29.4948 8.95833 29.6406 9.48438C29.7865 10.0052 29.9948 10.4453 30.2656 10.8047C30.5417 11.1589 30.8672 11.4271 31.2422 11.6094C31.6224 11.7917 32.0469 11.8828 32.5156 11.8828C33.0052 11.8828 33.4401 11.7917 33.8203 11.6094C34.2005 11.4271 34.5208 11.1589 34.7812 10.8047C35.0469 10.4453 35.2474 10.0052 35.3828 9.48438C35.5182 8.95833 35.5859 8.35417 35.5859 7.67188ZM43.3203 1.625V13H41.8359V1.625H43.3203ZM46.9766 1.625V2.85938H38.1875V1.625H46.9766ZM34.3828 26.125C34.3828 25.8594 34.3411 25.625 34.2578 25.4219C34.1797 25.2135 34.0391 25.026 33.8359 24.8594C33.638 24.6927 33.362 24.5339 33.0078 24.3828C32.6589 24.2318 32.2161 24.0781 31.6797 23.9219C31.1172 23.7552 30.6094 23.5703 30.1562 23.3672C29.7031 23.1589 29.3151 22.9219 28.9922 22.6562C28.6693 22.3906 28.4219 22.0859 28.25 21.7422C28.0781 21.3984 27.9922 21.0052 27.9922 20.5625C27.9922 20.1198 28.0833 19.7109 28.2656 19.3359C28.4479 18.9609 28.7083 18.6354 29.0469 18.3594C29.3906 18.0781 29.7995 17.8594 30.2734 17.7031C30.7474 17.5469 31.276 17.4688 31.8594 17.4688C32.7135 17.4688 33.4375 17.6328 34.0312 17.9609C34.6302 18.2839 35.0859 18.7083 35.3984 19.2344C35.7109 19.7552 35.8672 20.3125 35.8672 20.9062H34.3672C34.3672 20.4792 34.276 20.1016 34.0938 19.7734C33.9115 19.4401 33.6354 19.1797 33.2656 18.9922C32.8958 18.7995 32.4271 18.7031 31.8594 18.7031C31.3229 18.7031 30.8802 18.7839 30.5312 18.9453C30.1823 19.1068 29.9219 19.3255 29.75 19.6016C29.5833 19.8776 29.5 20.1927 29.5 20.5469C29.5 20.7865 29.5495 21.0052 29.6484 21.2031C29.7526 21.3958 29.9115 21.5755 30.125 21.7422C30.3438 21.9089 30.6198 22.0625 30.9531 22.2031C31.2917 22.3438 31.6953 22.4792 32.1641 22.6094C32.8099 22.7917 33.3672 22.9948 33.8359 23.2188C34.3047 23.4427 34.6901 23.6953 34.9922 23.9766C35.2995 24.2526 35.526 24.5677 35.6719 24.9219C35.8229 25.2708 35.8984 25.6667 35.8984 26.1094C35.8984 26.5729 35.8047 26.9922 35.6172 27.3672C35.4297 27.7422 35.1615 28.0625 34.8125 28.3281C34.4635 28.5938 34.0443 28.7995 33.5547 28.9453C33.0703 29.0859 32.5286 29.1562 31.9297 29.1562C31.4036 29.1562 30.8854 29.0833 30.375 28.9375C29.8698 28.7917 29.4089 28.5729 28.9922 28.2812C28.5807 27.9896 28.25 27.6302 28 27.2031C27.7552 26.7708 27.6328 26.2708 27.6328 25.7031H29.1328C29.1328 26.0938 29.2083 26.4297 29.3594 26.7109C29.5104 26.987 29.7161 27.2161 29.9766 27.3984C30.2422 27.5807 30.5417 27.7161 30.875 27.8047C31.2135 27.888 31.5651 27.9297 31.9297 27.9297C32.4557 27.9297 32.901 27.8568 33.2656 27.7109C33.6302 27.5651 33.9062 27.3568 34.0938 27.0859C34.2865 26.8151 34.3828 26.4948 34.3828 26.125ZM41.1094 29.1562C40.5208 29.1562 39.987 29.0573 39.5078 28.8594C39.0339 28.6562 38.625 28.3724 38.2812 28.0078C37.9427 27.6432 37.6823 27.2109 37.5 26.7109C37.3177 26.2109 37.2266 25.6641 37.2266 25.0703V24.7422C37.2266 24.0547 37.3281 23.4427 37.5312 22.9062C37.7344 22.3646 38.0104 21.9062 38.3594 21.5312C38.7083 21.1562 39.1042 20.8724 39.5469 20.6797C39.9896 20.487 40.4479 20.3906 40.9219 20.3906C41.526 20.3906 42.0469 20.4948 42.4844 20.7031C42.9271 20.9115 43.2891 21.2031 43.5703 21.5781C43.8516 21.9479 44.0599 22.3854 44.1953 22.8906C44.3307 23.3906 44.3984 23.9375 44.3984 24.5312V25.1797H38.0859V24H42.9531V23.8906C42.9323 23.5156 42.8542 23.151 42.7188 22.7969C42.5885 22.4427 42.3802 22.151 42.0938 21.9219C41.8073 21.6927 41.4167 21.5781 40.9219 21.5781C40.5938 21.5781 40.2917 21.6484 40.0156 21.7891C39.7396 21.9245 39.5026 22.1276 39.3047 22.3984C39.1068 22.6693 38.9531 23 38.8438 23.3906C38.7344 23.7812 38.6797 24.2318 38.6797 24.7422V25.0703C38.6797 25.4714 38.7344 25.849 38.8438 26.2031C38.9583 26.5521 39.1224 26.8594 39.3359 27.125C39.5547 27.3906 39.8177 27.599 40.125 27.75C40.4375 27.901 40.7917 27.9766 41.1875 27.9766C41.6979 27.9766 42.1302 27.8724 42.4844 27.6641C42.8385 27.4557 43.1484 27.1771 43.4141 26.8281L44.2891 27.5234C44.1068 27.7995 43.875 28.0625 43.5938 28.3125C43.3125 28.5625 42.9661 28.7656 42.5547 28.9219C42.1484 29.0781 41.6667 29.1562 41.1094 29.1562ZM49.4688 27.9688C49.8125 27.9688 50.1302 27.8984 50.4219 27.7578C50.7135 27.6172 50.9531 27.4245 51.1406 27.1797C51.3281 26.9297 51.4349 26.6458 51.4609 26.3281H52.8359C52.8099 26.8281 52.6406 27.2943 52.3281 27.7266C52.0208 28.1536 51.6172 28.5 51.1172 28.7656C50.6172 29.026 50.0677 29.1562 49.4688 29.1562C48.8333 29.1562 48.2786 29.0443 47.8047 28.8203C47.3359 28.5964 46.9453 28.2891 46.6328 27.8984C46.3255 27.5078 46.0938 27.0599 45.9375 26.5547C45.7865 26.0443 45.7109 25.5052 45.7109 24.9375V24.6094C45.7109 24.0417 45.7865 23.5052 45.9375 23C46.0938 22.4896 46.3255 22.0391 46.6328 21.6484C46.9453 21.2578 47.3359 20.9505 47.8047 20.7266C48.2786 20.5026 48.8333 20.3906 49.4688 20.3906C50.1302 20.3906 50.7083 20.526 51.2031 20.7969C51.6979 21.0625 52.0859 21.4271 52.3672 21.8906C52.6536 22.349 52.8099 22.8698 52.8359 23.4531H51.4609C51.4349 23.1042 51.3359 22.7891 51.1641 22.5078C50.9974 22.2266 50.7682 22.0026 50.4766 21.8359C50.1901 21.6641 49.8542 21.5781 49.4688 21.5781C49.026 21.5781 48.6536 21.6667 48.3516 21.8438C48.0547 22.0156 47.8177 22.25 47.6406 22.5469C47.4688 22.8385 47.3438 23.1641 47.2656 23.5234C47.1927 23.8776 47.1562 24.2396 47.1562 24.6094V24.9375C47.1562 25.3073 47.1927 25.6719 47.2656 26.0312C47.3385 26.3906 47.4609 26.7161 47.6328 27.0078C47.8099 27.2995 48.0469 27.5339 48.3438 27.7109C48.6458 27.8828 49.0208 27.9688 49.4688 27.9688ZM59.6328 27.0469V20.5469H61.0859V29H59.7031L59.6328 27.0469ZM59.9062 25.2656L60.5078 25.25C60.5078 25.8125 60.4479 26.3333 60.3281 26.8125C60.2135 27.2865 60.026 27.6979 59.7656 28.0469C59.5052 28.3958 59.1641 28.6693 58.7422 28.8672C58.3203 29.0599 57.8073 29.1562 57.2031 29.1562C56.7917 29.1562 56.4141 29.0964 56.0703 28.9766C55.7318 28.8568 55.4401 28.6719 55.1953 28.4219C54.9505 28.1719 54.7604 27.8464 54.625 27.4453C54.4948 27.0443 54.4297 26.5625 54.4297 26V20.5469H55.875V26.0156C55.875 26.3958 55.9167 26.7109 56 26.9609C56.0885 27.2057 56.2057 27.401 56.3516 27.5469C56.5026 27.6875 56.6693 27.7865 56.8516 27.8438C57.0391 27.901 57.2318 27.9297 57.4297 27.9297C58.0443 27.9297 58.5312 27.8125 58.8906 27.5781C59.25 27.3385 59.5078 27.0182 59.6641 26.6172C59.8255 26.2109 59.9062 25.7604 59.9062 25.2656ZM64.7344 21.875V29H63.2891V20.5469H64.6953L64.7344 21.875ZM67.375 20.5L67.3672 21.8438C67.2474 21.8177 67.1328 21.8021 67.0234 21.7969C66.9193 21.7865 66.7995 21.7812 66.6641 21.7812C66.3307 21.7812 66.0365 21.8333 65.7812 21.9375C65.526 22.0417 65.3099 22.1875 65.1328 22.375C64.9557 22.5625 64.8151 22.7865 64.7109 23.0469C64.612 23.3021 64.5469 23.5833 64.5156 23.8906L64.1094 24.125C64.1094 23.6146 64.1589 23.1354 64.2578 22.6875C64.362 22.2396 64.5208 21.8438 64.7344 21.5C64.9479 21.151 65.2188 20.8802 65.5469 20.6875C65.8802 20.4896 66.276 20.3906 66.7344 20.3906C66.8385 20.3906 66.9583 20.4036 67.0938 20.4297C67.2292 20.4505 67.3229 20.474 67.375 20.5ZM72.0625 29.1562C71.474 29.1562 70.9401 29.0573 70.4609 28.8594C69.987 28.6562 69.5781 28.3724 69.2344 28.0078C68.8958 27.6432 68.6354 27.2109 68.4531 26.7109C68.2708 26.2109 68.1797 25.6641 68.1797 25.0703V24.7422C68.1797 24.0547 68.2812 23.4427 68.4844 22.9062C68.6875 22.3646 68.9635 21.9062 69.3125 21.5312C69.6615 21.1562 70.0573 20.8724 70.5 20.6797C70.9427 20.487 71.401 20.3906 71.875 20.3906C72.4792 20.3906 73 20.4948 73.4375 20.7031C73.8802 20.9115 74.2422 21.2031 74.5234 21.5781C74.8047 21.9479 75.013 22.3854 75.1484 22.8906C75.2839 23.3906 75.3516 23.9375 75.3516 24.5312V25.1797H69.0391V24H73.9062V23.8906C73.8854 23.5156 73.8073 23.151 73.6719 22.7969C73.5417 22.4427 73.3333 22.151 73.0469 21.9219C72.7604 21.6927 72.3698 21.5781 71.875 21.5781C71.5469 21.5781 71.2448 21.6484 70.9688 21.7891C70.6927 21.9245 70.4557 22.1276 70.2578 22.3984C70.0599 22.6693 69.9062 23 69.7969 23.3906C69.6875 23.7812 69.6328 24.2318 69.6328 24.7422V25.0703C69.6328 25.4714 69.6875 25.849 69.7969 26.2031C69.9115 26.5521 70.0755 26.8594 70.2891 27.125C70.5078 27.3906 70.7708 27.599 71.0781 27.75C71.3906 27.901 71.7448 27.9766 72.1406 27.9766C72.651 27.9766 73.0833 27.8724 73.4375 27.6641C73.7917 27.4557 74.1016 27.1771 74.3672 26.8281L75.2422 27.5234C75.0599 27.7995 74.8281 28.0625 74.5469 28.3125C74.2656 28.5625 73.9193 28.7656 73.5078 28.9219C73.1016 29.0781 72.6198 29.1562 72.0625 29.1562ZM85.4375 18.6328L81.6719 29H80.1328L84.4688 17.625H85.4609L85.4375 18.6328ZM88.5938 29L84.8203 18.6328L84.7969 17.625H85.7891L90.1406 29H88.5938ZM88.3984 24.7891V26.0234H82.0078V24.7891H88.3984ZM94.8281 27.9688C95.1719 27.9688 95.4896 27.8984 95.7812 27.7578C96.0729 27.6172 96.3125 27.4245 96.5 27.1797C96.6875 26.9297 96.7943 26.6458 96.8203 26.3281H98.1953C98.1693 26.8281 98 27.2943 97.6875 27.7266C97.3802 28.1536 96.9766 28.5 96.4766 28.7656C95.9766 29.026 95.4271 29.1562 94.8281 29.1562C94.1927 29.1562 93.638 29.0443 93.1641 28.8203C92.6953 28.5964 92.3047 28.2891 91.9922 27.8984C91.6849 27.5078 91.4531 27.0599 91.2969 26.5547C91.1458 26.0443 91.0703 25.5052 91.0703 24.9375V24.6094C91.0703 24.0417 91.1458 23.5052 91.2969 23C91.4531 22.4896 91.6849 22.0391 91.9922 21.6484C92.3047 21.2578 92.6953 20.9505 93.1641 20.7266C93.638 20.5026 94.1927 20.3906 94.8281 20.3906C95.4896 20.3906 96.0677 20.526 96.5625 20.7969C97.0573 21.0625 97.4453 21.4271 97.7266 21.8906C98.013 22.349 98.1693 22.8698 98.1953 23.4531H96.8203C96.7943 23.1042 96.6953 22.7891 96.5234 22.5078C96.3568 22.2266 96.1276 22.0026 95.8359 21.8359C95.5495 21.6641 95.2135 21.5781 94.8281 21.5781C94.3854 21.5781 94.013 21.6667 93.7109 21.8438C93.4141 22.0156 93.1771 22.25 93 22.5469C92.8281 22.8385 92.7031 23.1641 92.625 23.5234C92.5521 23.8776 92.5156 24.2396 92.5156 24.6094V24.9375C92.5156 25.3073 92.5521 25.6719 92.625 26.0312C92.6979 26.3906 92.8203 26.7161 92.9922 27.0078C93.1693 27.2995 93.4062 27.5339 93.7031 27.7109C94.0052 27.8828 94.3802 27.9688 94.8281 27.9688ZM103.203 27.9688C103.547 27.9688 103.865 27.8984 104.156 27.7578C104.448 27.6172 104.688 27.4245 104.875 27.1797C105.062 26.9297 105.169 26.6458 105.195 26.3281H106.57C106.544 26.8281 106.375 27.2943 106.062 27.7266C105.755 28.1536 105.352 28.5 104.852 28.7656C104.352 29.026 103.802 29.1562 103.203 29.1562C102.568 29.1562 102.013 29.0443 101.539 28.8203C101.07 28.5964 100.68 28.2891 100.367 27.8984C100.06 27.5078 99.8281 27.0599 99.6719 26.5547C99.5208 26.0443 99.4453 25.5052 99.4453 24.9375V24.6094C99.4453 24.0417 99.5208 23.5052 99.6719 23C99.8281 22.4896 100.06 22.0391 100.367 21.6484C100.68 21.2578 101.07 20.9505 101.539 20.7266C102.013 20.5026 102.568 20.3906 103.203 20.3906C103.865 20.3906 104.443 20.526 104.938 20.7969C105.432 21.0625 105.82 21.4271 106.102 21.8906C106.388 22.349 106.544 22.8698 106.57 23.4531H105.195C105.169 23.1042 105.07 22.7891 104.898 22.5078C104.732 22.2266 104.503 22.0026 104.211 21.8359C103.924 21.6641 103.589 21.5781 103.203 21.5781C102.76 21.5781 102.388 21.6667 102.086 21.8438C101.789 22.0156 101.552 22.25 101.375 22.5469C101.203 22.8385 101.078 23.1641 101 23.5234C100.927 23.8776 100.891 24.2396 100.891 24.6094V24.9375C100.891 25.3073 100.927 25.6719 101 26.0312C101.073 26.3906 101.195 26.7161 101.367 27.0078C101.544 27.2995 101.781 27.5339 102.078 27.7109C102.38 27.8828 102.755 27.9688 103.203 27.9688ZM111.703 29.1562C111.115 29.1562 110.581 29.0573 110.102 28.8594C109.628 28.6562 109.219 28.3724 108.875 28.0078C108.536 27.6432 108.276 27.2109 108.094 26.7109C107.911 26.2109 107.82 25.6641 107.82 25.0703V24.7422C107.82 24.0547 107.922 23.4427 108.125 22.9062C108.328 22.3646 108.604 21.9062 108.953 21.5312C109.302 21.1562 109.698 20.8724 110.141 20.6797C110.583 20.487 111.042 20.3906 111.516 20.3906C112.12 20.3906 112.641 20.4948 113.078 20.7031C113.521 20.9115 113.883 21.2031 114.164 21.5781C114.445 21.9479 114.654 22.3854 114.789 22.8906C114.924 23.3906 114.992 23.9375 114.992 24.5312V25.1797H108.68V24H113.547V23.8906C113.526 23.5156 113.448 23.151 113.312 22.7969C113.182 22.4427 112.974 22.151 112.688 21.9219C112.401 21.6927 112.01 21.5781 111.516 21.5781C111.188 21.5781 110.885 21.6484 110.609 21.7891C110.333 21.9245 110.096 22.1276 109.898 22.3984C109.701 22.6693 109.547 23 109.438 23.3906C109.328 23.7812 109.273 24.2318 109.273 24.7422V25.0703C109.273 25.4714 109.328 25.849 109.438 26.2031C109.552 26.5521 109.716 26.8594 109.93 27.125C110.148 27.3906 110.411 27.599 110.719 27.75C111.031 27.901 111.385 27.9766 111.781 27.9766C112.292 27.9766 112.724 27.8724 113.078 27.6641C113.432 27.4557 113.742 27.1771 114.008 26.8281L114.883 27.5234C114.701 27.7995 114.469 28.0625 114.188 28.3125C113.906 28.5625 113.56 28.7656 113.148 28.9219C112.742 29.0781 112.26 29.1562 111.703 29.1562ZM121.602 26.7578C121.602 26.5495 121.555 26.3568 121.461 26.1797C121.372 25.9974 121.188 25.8333 120.906 25.6875C120.63 25.5365 120.214 25.4062 119.656 25.2969C119.188 25.1979 118.763 25.0807 118.383 24.9453C118.008 24.8099 117.688 24.6458 117.422 24.4531C117.161 24.2604 116.961 24.0339 116.82 23.7734C116.68 23.513 116.609 23.2083 116.609 22.8594C116.609 22.526 116.682 22.2109 116.828 21.9141C116.979 21.6172 117.19 21.3542 117.461 21.125C117.737 20.8958 118.068 20.7161 118.453 20.5859C118.839 20.4557 119.268 20.3906 119.742 20.3906C120.419 20.3906 120.997 20.5104 121.477 20.75C121.956 20.9896 122.323 21.3099 122.578 21.7109C122.833 22.1068 122.961 22.5469 122.961 23.0312H121.516C121.516 22.7969 121.445 22.5703 121.305 22.3516C121.169 22.1276 120.969 21.9427 120.703 21.7969C120.443 21.651 120.122 21.5781 119.742 21.5781C119.341 21.5781 119.016 21.6406 118.766 21.7656C118.521 21.8854 118.341 22.0391 118.227 22.2266C118.117 22.4141 118.062 22.612 118.062 22.8203C118.062 22.9766 118.089 23.1172 118.141 23.2422C118.198 23.362 118.297 23.474 118.438 23.5781C118.578 23.6771 118.776 23.7708 119.031 23.8594C119.286 23.9479 119.612 24.0365 120.008 24.125C120.701 24.2812 121.271 24.4688 121.719 24.6875C122.167 24.9062 122.5 25.1745 122.719 25.4922C122.938 25.8099 123.047 26.1953 123.047 26.6484C123.047 27.0182 122.969 27.3568 122.812 27.6641C122.661 27.9714 122.44 28.237 122.148 28.4609C121.862 28.6797 121.518 28.8516 121.117 28.9766C120.721 29.0964 120.276 29.1562 119.781 29.1562C119.036 29.1562 118.406 29.0234 117.891 28.7578C117.375 28.4922 116.984 28.1484 116.719 27.7266C116.453 27.3047 116.32 26.8594 116.32 26.3906H117.773C117.794 26.7865 117.909 27.1016 118.117 27.3359C118.326 27.5651 118.581 27.7292 118.883 27.8281C119.185 27.9219 119.484 27.9688 119.781 27.9688C120.177 27.9688 120.508 27.9167 120.773 27.8125C121.044 27.7083 121.25 27.5651 121.391 27.3828C121.531 27.2005 121.602 26.9922 121.602 26.7578ZM129.867 26.7578C129.867 26.5495 129.82 26.3568 129.727 26.1797C129.638 25.9974 129.453 25.8333 129.172 25.6875C128.896 25.5365 128.479 25.4062 127.922 25.2969C127.453 25.1979 127.029 25.0807 126.648 24.9453C126.273 24.8099 125.953 24.6458 125.688 24.4531C125.427 24.2604 125.227 24.0339 125.086 23.7734C124.945 23.513 124.875 23.2083 124.875 22.8594C124.875 22.526 124.948 22.2109 125.094 21.9141C125.245 21.6172 125.456 21.3542 125.727 21.125C126.003 20.8958 126.333 20.7161 126.719 20.5859C127.104 20.4557 127.534 20.3906 128.008 20.3906C128.685 20.3906 129.263 20.5104 129.742 20.75C130.221 20.9896 130.589 21.3099 130.844 21.7109C131.099 22.1068 131.227 22.5469 131.227 23.0312H129.781C129.781 22.7969 129.711 22.5703 129.57 22.3516C129.435 22.1276 129.234 21.9427 128.969 21.7969C128.708 21.651 128.388 21.5781 128.008 21.5781C127.607 21.5781 127.281 21.6406 127.031 21.7656C126.786 21.8854 126.607 22.0391 126.492 22.2266C126.383 22.4141 126.328 22.612 126.328 22.8203C126.328 22.9766 126.354 23.1172 126.406 23.2422C126.464 23.362 126.562 23.474 126.703 23.5781C126.844 23.6771 127.042 23.7708 127.297 23.8594C127.552 23.9479 127.878 24.0365 128.273 24.125C128.966 24.2812 129.536 24.4688 129.984 24.6875C130.432 24.9062 130.766 25.1745 130.984 25.4922C131.203 25.8099 131.312 26.1953 131.312 26.6484C131.312 27.0182 131.234 27.3568 131.078 27.6641C130.927 27.9714 130.706 28.237 130.414 28.4609C130.128 28.6797 129.784 28.8516 129.383 28.9766C128.987 29.0964 128.542 29.1562 128.047 29.1562C127.302 29.1562 126.672 29.0234 126.156 28.7578C125.641 28.4922 125.25 28.1484 124.984 27.7266C124.719 27.3047 124.586 26.8594 124.586 26.3906H126.039C126.06 26.7865 126.174 27.1016 126.383 27.3359C126.591 27.5651 126.846 27.7292 127.148 27.8281C127.451 27.9219 127.75 27.9688 128.047 27.9688C128.443 27.9688 128.773 27.9167 129.039 27.8125C129.31 27.7083 129.516 27.5651 129.656 27.3828C129.797 27.2005 129.867 26.9922 129.867 26.7578Z" fill="#2D0B3D"/>
</g>
<defs>
<clipPath id="clip0_427_14414">
<rect width="142" height="32" fill="white"/>
</clipPath>
</defs>
</svg>
