<svg width="206" height="53" viewBox="0 0 206 53" fill="none" xmlns="http://www.w3.org/2000/svg">
<g clip-path="url(#clip0_1_11205)">
<path d="M19.1731 8.74677L12.581 0H0L19.1731 25.539L25.4873 17.026L19.1731 8.69935V8.74677Z" fill="#AF52DE"/>
<path d="M25.6737 0L19.1687 8.69935L25.4829 17.026L38.3032 0H25.6737Z" fill="#AF52DE"/>
<path opacity="0.5" d="M20.2051 7.34302L19.1731 8.69936L25.4873 17.026L26.7001 15.4348L20.2051 7.34302Z" fill="#8403C4"/>
<path d="M19.1687 33.955C18.8915 33.9534 18.6168 34.0068 18.3605 34.1121C18.1041 34.2175 17.8712 34.3726 17.6753 34.5686C17.4793 34.7646 17.3242 34.9976 17.2188 35.254C17.1135 35.5104 17.0601 35.7851 17.0617 36.0623V38.1211H21.2701V36.0634C21.2719 35.7866 21.2188 35.5122 21.1139 35.256C21.0089 34.9998 20.8543 34.767 20.6589 34.571C20.4635 34.3749 20.2312 34.2196 19.9754 34.1138C19.7197 34.0081 19.4455 33.9541 19.1687 33.955Z" fill="#AF52DE"/>
<path d="M19.1698 25.5875C16.4595 25.5882 13.8104 26.3926 11.5572 27.8991C9.30412 29.4056 7.54823 31.5465 6.51162 34.0511C5.47502 36.5557 5.20424 39.3114 5.73354 41.9699C6.26285 44.6284 7.56845 47.0702 9.48526 48.9866C11.4021 50.9029 13.844 52.2078 16.5023 52.7361C19.1605 53.2644 21.9157 52.9925 24.4195 51.9547C26.9232 50.9169 29.063 49.1599 30.5684 46.9058C32.0737 44.6516 32.8769 42.0017 32.8765 39.291C32.8774 37.4907 32.5234 35.708 31.8348 34.0446C31.1462 32.3813 30.1365 30.87 28.8635 29.5973C27.5905 28.3246 26.0791 27.3153 24.4157 26.6273C22.7524 25.9393 20.9698 25.5859 19.1698 25.5875ZM25.1069 45.045C25.1032 45.4533 24.9394 45.8438 24.6507 46.1325C24.362 46.4212 23.9716 46.5851 23.5634 46.5888H14.7784C14.3702 46.5851 13.9797 46.4212 13.6911 46.1325C13.4024 45.8438 13.2386 45.4533 13.2348 45.045V39.7619C13.2386 39.3536 13.4024 38.9631 13.6911 38.6744C13.9797 38.3857 14.3702 38.2218 14.7784 38.2181H15.0121V36.1593C15.0085 35.6099 15.1132 35.0651 15.3202 34.5561C15.5273 34.0472 15.8326 33.5841 16.2188 33.1933C16.6049 32.8024 17.0643 32.4916 17.5707 32.2785C18.077 32.0654 18.6204 31.9542 19.1698 31.9513C20.2824 31.9628 21.3461 32.4099 22.1329 33.1968C22.9196 33.9837 23.3667 35.0476 23.3782 36.1604V38.2192H23.6119C23.8163 38.2129 24.0198 38.2486 24.2099 38.3239C24.4 38.3993 24.5727 38.5128 24.7173 38.6574C24.8619 38.802 24.9754 38.9747 25.0507 39.1649C25.1261 39.355 25.1617 39.5586 25.1555 39.763L25.1069 45.045Z" fill="#AF52DE"/>
<path d="M17.6781 40.9263C17.6605 40.9082 17.6471 40.8865 17.6389 40.8627C17.6307 40.8389 17.6279 40.8135 17.6307 40.7885C17.6379 40.7489 17.6541 40.7116 17.678 40.6793C17.7019 40.647 17.7328 40.6206 17.7685 40.6021L18.6571 39.8523C18.8074 39.7414 18.9867 39.6767 19.1731 39.6659H19.6891C19.7768 39.6659 19.8609 39.7007 19.923 39.7628C19.985 39.8248 20.0199 39.909 20.0199 39.9967V44.4859C20.0179 44.573 19.9838 44.6563 19.9239 44.7197C19.828 44.7671 19.7861 44.8156 19.6902 44.8156H19.0353C18.9476 44.8156 18.8634 44.7807 18.8014 44.7187C18.7394 44.6567 18.7045 44.5725 18.7045 44.4848V40.9781L18.2845 41.3089C18.2371 41.3564 18.1885 41.3564 18.0981 41.3564C18.0507 41.3564 18.0022 41.3089 17.9603 41.2604L17.6781 40.9296V40.9263Z" fill="#AF52DE"/>
<path d="M44.8997 48.1392C44.6984 48.1686 44.4932 48.1563 44.297 48.103C44.1007 48.0497 43.9175 47.9565 43.7588 47.8292C43.6001 47.702 43.4693 47.5434 43.3746 47.3634C43.2799 47.1833 43.2233 46.9857 43.2084 46.7828C43.2521 46.234 43.4744 45.7146 43.8412 45.3041L59.0507 25.8962L44.7177 7.7256C44.3443 7.3193 44.121 6.79753 44.0849 6.24685C44.0849 5.3213 44.638 4.85853 45.7442 4.85853H52.2348C53.279 4.88588 54.3019 5.15989 55.2199 5.65818C56.1379 6.15647 56.9251 6.8649 57.5171 7.7256L65.7861 18.229L74.0551 7.7256C74.6497 6.86869 75.4367 6.16294 76.353 5.66488C77.2693 5.16682 78.2895 4.89029 79.3319 4.85742H85.8258C86.932 4.85742 87.4851 5.3202 87.4851 6.24575C87.4414 6.79458 87.2191 7.31397 86.8523 7.72449L72.5193 25.8951L87.7288 45.303C88.0671 45.6482 88.2884 46.091 88.3616 46.5689C88.3758 46.7898 88.3405 47.0111 88.2585 47.2167C88.1764 47.4222 88.0495 47.6069 87.8871 47.7573C87.7247 47.9077 87.5308 48.02 87.3196 48.0861C87.1084 48.1521 86.8851 48.1703 86.6659 48.1392H80.2392C79.2022 48.1154 78.1856 47.846 77.2729 47.3529C76.3602 46.8599 75.5775 46.1573 74.989 45.303L65.7861 33.5623L56.5821 45.3052C55.9938 46.1606 55.2104 46.8637 54.2968 47.3564C53.3831 47.8492 52.3653 48.1175 51.3275 48.1392H44.8997Z" fill="#AF52DE"/>
<path d="M93.2734 45.3648V7.78964C93.2646 7.4034 93.3352 7.01946 93.4806 6.66155C93.6261 6.30365 93.8434 5.97938 94.1191 5.7088C94.3804 5.43702 94.6946 5.22173 95.0424 5.07625C95.3902 4.93077 95.7642 4.8582 96.1411 4.86302H113.01C121.74 4.86302 128.092 6.60826 132.066 10.0987C136.04 13.5892 138.025 19.0624 138.02 26.5182C138.02 33.9726 136.035 39.4406 132.066 42.9223C128.097 46.4039 121.745 48.1429 113.01 48.1392H96.14C95.387 48.1511 94.6599 47.8641 94.118 47.3409C93.8451 47.0903 93.6287 46.7845 93.483 46.4438C93.3374 46.1031 93.266 45.7353 93.2734 45.3648ZM104.653 39.5976H112.68C118.091 39.5976 121.772 38.6114 123.723 36.639C125.675 34.6666 126.65 31.2915 126.649 26.5138C126.649 21.7354 125.674 18.3537 123.723 16.3688C121.773 14.3839 118.092 13.3915 112.68 13.3915H104.653V39.5976Z" fill="#AF52DE"/>
<path d="M189.153 46.8435C189.153 47.7102 188.642 48.1414 187.615 48.1414H180.375C179.475 48.0988 178.603 47.8117 177.853 47.311C177.005 46.8197 176.286 46.1318 175.759 45.3052L170.63 37.2763C168.518 33.9777 165.963 32.3284 162.965 32.3284H155.595V45.3052C155.596 45.6777 155.523 46.0466 155.38 46.3909C155.238 46.7351 155.029 47.0479 154.765 47.3113C154.502 47.5747 154.189 47.7836 153.845 47.9261C153.501 48.0685 153.132 48.1417 152.76 48.1414H147.089C146.714 48.1462 146.341 48.0752 145.994 47.9325C145.647 47.7898 145.332 47.5784 145.068 47.311C144.796 47.0533 144.581 46.742 144.435 46.3968C144.29 46.0515 144.217 45.6798 144.223 45.3052V7.7256C144.217 7.35133 144.286 6.97972 144.426 6.63247C144.566 6.28523 144.773 5.96932 145.036 5.70321C145.29 5.43134 145.597 5.2156 145.939 5.06992C146.281 4.92424 146.649 4.85185 147.021 4.85742H171.917C176.022 4.68637 180.05 6.00545 183.258 8.57138C184.712 9.79111 185.867 11.3283 186.633 13.0646C187.4 14.8009 187.757 16.6899 187.679 18.5863C187.679 24.4447 183.886 28.1178 176.3 29.6058C177.578 30.0957 178.725 30.8751 179.652 31.8829C180.965 33.3387 182.146 34.9094 183.18 36.576L188.669 45.2963C188.96 45.7588 189.126 46.2881 189.153 46.8335V46.8435ZM155.595 23.7834H168.453C170.354 23.8247 172.235 23.3992 173.933 22.5439C174.674 22.1925 175.294 21.6295 175.715 20.9259C176.136 20.2224 176.34 19.4098 176.3 18.5907C176.34 17.7716 176.136 16.959 175.715 16.2555C175.294 15.5519 174.674 14.9889 173.933 14.6374C172.234 13.7841 170.353 13.3587 168.453 13.398H155.595V23.7834Z" fill="#AF52DE"/>
<path d="M190.568 17.5475V15.4524C190.562 15.3078 190.586 15.1637 190.639 15.0291C190.692 14.8945 190.773 14.7724 190.875 14.6705C190.977 14.5698 191.097 14.4905 191.23 14.4375C191.362 14.3844 191.504 14.3587 191.647 14.3618H196.047V9.97627C196.042 9.83174 196.066 9.68761 196.119 9.55301C196.172 9.41842 196.252 9.29631 196.355 9.19444C196.457 9.09237 196.58 9.01233 196.714 8.95923C196.848 8.90613 196.992 8.8811 197.137 8.88568H199.212C199.356 8.88003 199.5 8.90457 199.635 8.95773C199.77 9.01089 199.892 9.09151 199.993 9.19444C200.095 9.2969 200.175 9.41911 200.228 9.55356C200.281 9.68801 200.306 9.83186 200.301 9.97627V14.3607H204.914C205.059 14.355 205.203 14.3796 205.337 14.4327C205.472 14.4859 205.594 14.5665 205.696 14.6694C205.797 14.7726 205.876 14.8949 205.929 15.0292C205.982 15.1635 206.007 15.307 206.003 15.4513V17.5464C206.008 17.6894 205.984 17.8319 205.931 17.9648C205.878 18.0976 205.798 18.2181 205.696 18.3183C205.485 18.5173 205.204 18.6243 204.914 18.6161H200.301V23.2288C200.307 23.3733 200.282 23.5174 200.229 23.652C200.176 23.7866 200.096 23.9087 199.993 24.0106C199.89 24.1116 199.768 24.191 199.634 24.244C199.499 24.297 199.356 24.3226 199.212 24.3193H197.137C196.992 24.3249 196.848 24.3004 196.713 24.2472C196.579 24.194 196.457 24.1135 196.355 24.0106C196.254 23.9074 196.175 23.7851 196.122 23.6508C196.069 23.5165 196.044 23.373 196.047 23.2288V18.6227H191.647C191.505 18.6271 191.364 18.603 191.231 18.5518C191.099 18.5007 190.978 18.4236 190.875 18.325C190.773 18.2239 190.693 18.1026 190.64 17.9687C190.587 17.8349 190.562 17.6914 190.568 17.5475Z" fill="#AF52DE"/>
</g>
<defs>
<clipPath id="clip0_1_11205">
<rect width="206" height="53" fill="white"/>
</clipPath>
</defs>
</svg>
